<svg width="102" height="103" viewBox="0 0 102 103" fill="none" xmlns="http://www.w3.org/2000/svg">
<path d="M39.512 8.12192L53.4884 0V102.308L39.512 94.3283V8.12192Z" fill="white"/>
<path d="M49.1009 83.6523L42.1126 95.7562L11 77.7933L17.9882 65.6894L49.1009 83.6523Z" fill="white"/>
<path d="M101.847 47.2404L87.8705 55.207L87.8705 25.1576L101.847 25.1576L101.847 47.2404Z" fill="white"/>
<path d="M87.8705 55.3468L101.847 62.9359V77.7195L87.8705 85.6757L87.8705 55.3468Z" fill="#85C33D"/>
<path d="M11 23.9251L24.9765 15.3741L24.9765 54.2287L11 46.4018L11 23.9251Z" fill="#85C33D"/>
<g filter="url(#filter0_d)">
<path d="M11 42.2089L24.9765 51.092L24.9765 70.0221L11 77.7091L11 42.2089Z" fill="white"/>
</g>
<path d="M72.2169 94.1858L58.2404 102.308L58.2404 6.40753e-06L72.2169 7.97943L72.2169 94.1858Z" fill="white"/>
<path d="M62.3316 18.3978L69.3198 6.29386L101.847 25.0734L94.8588 37.1774L62.3316 18.3978Z" fill="white"/>
<defs>
<filter id="filter0_d" x="0" y="22.2089" width="33.9765" height="55.5002" filterUnits="userSpaceOnUse" color-interpolation-filters="sRGB">
<feFlood flood-opacity="0" result="BackgroundImageFix"/>
<feColorMatrix in="SourceAlpha" type="matrix" values="0 0 0 0 0 0 0 0 0 0 0 0 0 0 0 0 0 0 127 0"/>
<feOffset dx="-1" dy="-10"/>
<feGaussianBlur stdDeviation="5"/>
<feColorMatrix type="matrix" values="0 0 0 0 0 0 0 0 0 0 0 0 0 0 0 0 0 0 0.1 0"/>
<feBlend mode="normal" in2="BackgroundImageFix" result="effect1_dropShadow"/>
<feBlend mode="normal" in="SourceGraphic" in2="effect1_dropShadow" result="shape"/>
</filter>
</defs>
</svg>
