<svg xmlns="http://www.w3.org/2000/svg" viewBox="0 0 64 64" width="64" height="64">
	<style>
		tspan { white-space:pre }
		.shp0 { fill: #000000 } 
		.shp1 { fill: #85c33d } 
	</style>
	<path id="Layer" class="shp0" d="M17.03 40.36C16.68 38.99 16.41 37.56 16.24 36.12L18.23 35.88C18.39 37.24 18.64 38.57 18.97 39.85L17.03 40.36Z" />
	<path id="Layer" class="shp0" d="M48 17L44.33 17C44.19 16.75 44.08 16.49 43.93 16.24L42.2 17.25C42.49 17.74 42.74 18.26 43 18.77L43 19L43.12 19C44.27 21.36 45.09 23.89 45.55 26.57L47.52 26.23C47.09 23.7 46.34 21.28 45.33 19L48 19L48 17Z" />
	<path id="Layer" class="shp0" d="M44.73 46.3L42.95 45.39C43.95 43.41 44.72 41.27 45.23 39.06L47.18 39.5C46.63 41.88 45.81 44.17 44.73 46.3L44.73 46.3Z" />
	<path id="Layer" class="shp1" d="M46.96 6L33 6L33 12.21C33 13.64 33.73 14.97 35 15.87C35.63 16.31 36 17.04 36 17.83C36 20.05 37.66 21.88 39.79 21.99C39.86 22 39.93 22 40 22C41.03 22 42 21.61 42.75 20.9C43.55 20.15 44 19.09 44 18L44 14.11C44 13.57 44.36 13.09 44.83 13.01C45.13 12.97 45.42 13.04 45.65 13.24C45.87 13.43 46 13.71 46 14L46 16C46 18.76 48.24 21 51 21L59.9 21C57.39 14.66 52.8 9.37 46.96 6L46.96 6Z" />
	<path id="Layer" class="shp0" d="M37 9L39 9L39 11L37 11L37 9Z" />
	<path id="Layer" class="shp0" d="M50 12L52 12L52 14L50 14L50 12Z" />
	<path id="Layer" class="shp0" d="M28 31L42 31L42 33L28 33L28 31Z" />
	<path id="Layer" class="shp1" d="M61.16 25L49 25C44.59 25 41 28.59 41 33C41 37.41 44.59 41 49 41L49.83 41C50.97 41 51.94 41.85 52 42.89C52.03 43.45 51.83 43.97 51.45 44.38C51.07 44.78 50.55 45 50 45L35.17 45C32.95 45 31.12 46.66 31.01 48.79C30.95 49.9 31.34 50.95 32.1 51.75C32.85 52.55 33.91 53 35 53L44 53C45.1 53 46 53.9 46 55L46 58L46.96 58C55.95 52.82 62 43.12 62 32C62 29.59 61.7 27.25 61.16 25Z" />
	<path id="Layer" class="shp1" d="M23 23L3.39 23C2.5 25.84 2 28.86 2 32C2 37.47 3.47 42.59 6.03 47L20 47C21.09 47 22.15 46.55 22.9 45.75C23.67 44.95 24.05 43.9 23.99 42.79C23.88 40.66 22.05 39 19.83 39L13 39C12.71 39 12.43 38.87 12.24 38.65C12.04 38.42 11.97 38.13 12.01 37.82C12.09 37.36 12.57 37 13.11 37L23 37C26.86 37 30 33.86 30 30C30 26.14 26.86 23 23 23Z" />
	<path id="Layer" class="shp0" d="M5 27L7 27L7 29L5 29L5 27Z" />
	<path id="Layer" class="shp0" d="M8 30L10 30L10 32L8 32L8 30Z" />
	<path id="Layer" class="shp0" d="M15 27L17 27L17 29L15 29L15 27Z" />
	<path id="Layer" class="shp0" d="M16 31L18 31L18 33L16 33L16 31Z" />
	<path id="Layer" class="shp0" d="M5 36L7 36L7 38L5 38L5 36Z" />
	<path id="Layer" class="shp0" d="M50 49L52 49L52 51L50 51L50 49Z" />
	<path id="Layer" class="shp0" d="M56 39L58 39L58 41L56 41L56 39Z" />
	<path id="Layer" fill-rule="evenodd" class="shp0" d="M63 32C63 43.04 57.05 53.34 47.46 58.87L47.23 59L16.77 59L16.54 58.87C6.95 53.34 1 43.04 1 32C1 20.96 6.95 10.66 16.54 5.13L16.77 5L47.23 5L47.46 5.13C57.05 10.66 63 20.96 63 32ZM61 32C61 21.76 55.52 12.2 46.69 7L33 7L33 7.71C32.59 7.46 32.25 7.26 32 7.13C30.55 7.92 25.56 10.96 21.95 17L35.84 17C35.93 17.26 36 17.54 36 17.83C36 18.24 36.07 18.63 36.18 19L20.87 19C20.27 20.23 19.74 21.56 19.3 23L17.23 23C17.63 21.58 18.1 20.23 18.65 19L6.1 19C4.1 22.98 3 27.42 3 32C3 42.24 8.48 51.8 17.31 57L28.47 57C25.93 55.18 22.35 51.97 19.65 47L20 47C21.09 47 22.15 46.55 22.9 45.75C23.12 45.52 23.3 45.27 23.45 45L35.17 45C35.17 45 35.17 45 35.17 45C33.63 45 32.29 45.81 31.57 47L21.94 47C25.54 53.05 30.54 56.08 32 56.87C32.86 56.4 34.94 55.15 37.23 53L40.05 53C38.44 54.74 36.84 56.06 35.53 57L46.69 57C55.52 51.8 61 42.24 61 32ZM7.22 17L19.63 17C22.31 12.03 25.91 8.82 28.45 7L17.31 7C13.11 9.48 9.67 12.95 7.22 17Z" />
</svg>