<svg xmlns="http://www.w3.org/2000/svg" viewBox="0 0 64 64" width="64" height="64">
	<style>
		tspan { white-space:pre }
		.shp0 { fill: #204197 } 
		.shp1 { fill: #000000 } 
	</style>
	<path id="Layer" class="shp0" d="M63 22.22L60.58 21.62L61.87 19.48L56.52 14.13L54.38 15.42L53.78 13L46.22 13L45.62 15.42L43.48 14.13L38.13 19.48L39.56 21.86L37 23.44L37 23.99L44.35 23.97C45.31 21.3 48.12 19.5 51.24 20.13C53.53 20.59 55.39 22.42 55.86 24.71C56.67 28.59 53.73 32 50 32C47.39 32 45.16 30.33 44.34 28L37 28L37 28.56L39.56 30.14L38.13 32.52L43.48 37.87L45.62 36.59L46.22 39L53.78 39L54.38 36.59L56.52 37.87L61.87 32.52L60.59 30.38L63 29.78L63 22.22Z" />
	<path id="Layer" class="shp0" d="M36 5L56 5L56 10L36 10L36 5Z" />
	<path id="Layer" fill-rule="evenodd" class="shp1" d="M60 1L60 18L58 18L58 3L34 3L34 17L40.62 17L38.62 19L29.02 19C28.37 20.56 27.42 21.99 26.19 23.22L23 26.41L23 29C23 31.97 20.83 34.43 18 34.91L18 36C18 36.55 18.45 37 19 37L23 37C23.55 37 24 36.55 24 36L24 34C24 32.35 25.35 31 27 31C28.65 31 30 32.35 30 34L30 36C30 36.55 30.45 37 31 37C31.55 37 32 36.55 32 36L32 30C32 28.35 33.35 27 35 27L45.05 27L45.28 27.67C45.99 29.66 47.88 31 50 31C51.51 31 52.93 30.33 53.88 29.15C54.84 27.98 55.2 26.43 54.89 24.91C54.49 23.02 52.95 21.49 51.05 21.11C48.56 20.61 46.14 21.95 45.29 24.31L45.05 24.97L32 25L32 23L43.68 22.98C45.06 20.09 48.21 18.49 51.44 19.14C54.12 19.68 56.29 21.84 56.84 24.51C57.29 26.62 56.77 28.77 55.44 30.41C54.1 32.06 52.12 33 50 33C47.28 33 44.82 31.42 43.67 29L35 29C34.45 29 34 29.45 34 30L34 36C34 37.65 32.65 39 31 39C29.35 39 28 37.65 28 36L28 34C28 33.45 27.55 33 27 33C26.45 33 26 33.45 26 34L26 36C26 37.65 24.65 39 23 39L19 39C17.35 39 16 37.65 16 36L16 34.91C13.17 34.43 11 31.97 11 29L11 26.41L7.81 23.22C6.62 22.04 5.7 20.66 5.06 19.16C3.86 19.56 3 20.69 3 22L3 41L47 41L47 39L49 39L49 46C49 48.76 46.76 51 44 51L31 51L31 53L34.76 53C35.91 53 36.94 53.64 37.45 54.66L39 57.76L39 63L11 63L11 57.76L12.55 54.66C13.06 53.64 14.09 53 15.24 53L19 53L19 51L6 51C3.24 51 1 48.76 1 46L1 22C1 19.82 2.43 17.95 4.42 17.27C4.15 16.23 4 15.14 4 14.03C4 6.83 9.83 1 17 1C24.17 1 30 6.83 30 14C30 15.03 29.87 16.03 29.64 17L32 17L32 1L60 1ZM14.34 55.55L13.62 57L19 57L19 55L15.24 55C14.85 55 14.51 55.21 14.34 55.55ZM37 61L37 59L13 59L13 61L37 61ZM31 55L31 57L36.38 57L35.66 55.55C35.49 55.21 35.15 55 34.76 55L31 55ZM29 51L21 51L21 57L29 57L29 51ZM3 43L3 46C3 47.65 4.35 49 6 49L44 49C45.65 49 47 47.65 47 46L47 43L35 43L35 44C35 45.65 33.65 47 32 47L18 47C16.35 47 15 45.65 15 44L15 43L3 43ZM23 45L27 45L27 43L23 43L23 45ZM29 45L32 45C32.55 45 33 44.55 33 44L33 43L29 43L29 45ZM17 44C17 44.55 17.45 45 18 45L21 45L21 43L17 43L17 44ZM21 29L21 27L13 27L13 29C13 31.21 14.79 33 17 33C19.21 33 21 31.21 21 29ZM28 14.03C28 7.93 23.06 3 17 3C10.93 3 6 7.93 6 14C6 16.97 7.14 19.73 9.22 21.81L12.41 25L14 25L14 17L12 17C9.79 17 8 15.21 8 13C8 10.79 9.79 9 12 9C14.21 9 16 10.79 16 13L16 15L18 15L18 13C18 10.79 19.79 9 22 9C24.21 9 26 10.79 26 13C26 15.21 24.21 17 22 17L20 17L20 25L21.59 25L24.78 21.81C26.85 19.73 28 16.97 28 14.03ZM18 17L16 17L16 25L18 25L18 17ZM14 13C14 11.9 13.1 11 12 11C10.9 11 10 11.9 10 13C10 14.1 10.9 15 12 15L14 15L14 13ZM22 15C23.1 15 24 14.1 24 13C24 11.9 23.1 11 22 11C20.9 11 20 11.9 20 13L20 15L22 15Z" />
	<path id="Layer" class="shp1" d="M28 23L30 23L30 25L28 25L28 23Z" />
	<path id="Layer" class="shp1" d="M36 5L38 5L38 7L36 7L36 5Z" />
	<path id="Layer" class="shp1" d="M40 5L56 5L56 7L40 7L40 5Z" />
	<path id="Layer" class="shp1" d="M36 9L56 9L56 11L36 11L36 9Z" />
	<path id="Layer" class="shp1" d="M36 13L38 13L38 15L36 15L36 13Z" />
	<path id="Layer" class="shp1" d="M40 13L42 13L42 15L40 15L40 13Z" />
	<path id="Layer" class="shp1" d="M5 29L7 29L7 31L5 31L5 29Z" />
	<path id="Layer" class="shp1" d="M5 37L7 37L7 39L5 39L5 37Z" />
	<path id="Layer" class="shp1" d="M5 33L7 33L7 35L5 35L5 33Z" />
</svg>