<svg xmlns="http://www.w3.org/2000/svg" viewBox="0 0 64 64" width="64" height="64">
	<style>
		tspan { white-space:pre }
		.shp0 { fill: #204197 } 
		.shp1 { fill: #000000 } 
	</style>
	<g id="Layer">
		<path id="Layer" class="shp0" d="M52 19C48.14 19 45 15.86 45 12C45 8.14 48.14 5 52 5C55.86 5 59 8.14 59 12C59 15.86 55.86 19 52 19Z" />
		<path id="Layer" class="shp0" d="M12 55L20 55L20 62L12 62L12 55Z" />
		<path id="Layer" class="shp0" d="M23 17L39 17L39 23L23 23L23 17Z" />
	</g>
	<path id="Layer" class="shp1" d="M49 21L51 21L51 23L49 23L49 21Z" />
	<path id="Layer" class="shp1" d="M53 21L55 21L55 23L53 23L53 21Z" />
	<path id="Layer" fill-rule="evenodd" class="shp1" d="M52 1C58.06 1 63 5.93 63 12L63 59L28 59L28 63L4 63L4 53L1 53L1 50.73L5 43.73L5 13L41.03 13C41.02 12.84 41 12.68 41 12.52L41 12C41 5.93 45.94 1 52 1ZM43 12.52C43 13.98 43.36 15.43 44.05 16.73L51.42 30.65C51.65 31.08 52.35 31.08 52.58 30.65L59.95 16.73C60.64 15.43 61 13.98 61 12.52L61 12C61 7.04 56.96 3 52 3C47.04 3 43 7.04 43 12L43 12.52ZM52 45L61 45L61 41L37 41L37 31L49.34 31L47.22 27L19 27L19 15L15 15L15 27L7 27L7 31L15 31L15 43L19 43L19 31L33 31L33 45L48 45L48 57L52 57L52 45ZM13 33L7 33L7 43L13 43L13 33ZM61 39L61 33L39 33L39 39L61 39ZM61 31L61 27L56.78 27L54.66 31L61 31ZM61 25L61 19.03L57.84 25L61 25ZM42.28 17.66C41.83 16.82 41.51 15.92 41.3 15L21 15L21 25L46.16 25L42.28 17.66ZM7 15L7 25L13 25L13 15L7 15ZM3.15 51L28.85 51L25.42 45L6.58 45L3.15 51ZM26 61L26 53L6 53L6 61L26 61ZM28 57L46 57L46 47L31 47L31 33L21 33L21 43L26.58 43L31 50.73L31 53L28 53L28 57ZM61 57L61 47L54 47L54 57L61 57Z" />
	<path id="Layer" class="shp1" d="M23 17L25 17L25 19L23 19L23 17Z" />
	<path id="Layer" class="shp1" d="M27 17L39 17L39 19L27 19L27 17Z" />
	<path id="Layer" class="shp1" d="M23 21L25 21L25 23L23 23L23 21Z" />
	<path id="Layer" class="shp1" d="M27 21L39 21L39 23L27 23L27 21Z" />
</svg>