<svg xmlns="http://www.w3.org/2000/svg" viewBox="0 0 496 496" width="496" height="496">
	<style>
		tspan { white-space:pre }
		.shp0 { fill: #85c33d } 
		.shp1 { fill: #000000 } 
	</style>
	<g id="Layer">
		<path id="Layer" class="shp0" d="M360 367.68C341.04 366.48 323.28 360.8 307.76 351.76L307.76 351.68C322.4 329.2 332.8 304.16 338.08 277.76L339.84 268.88C342.24 256.72 352.88 248 365.28 248C376.48 248 386.4 255.12 389.92 265.76L397.68 289.12C399.2 293.68 400 298.48 400 303.28C400 318.64 407.92 332.96 420.96 341.12L433.12 348.72C420.72 356.8 406.8 362.64 391.84 365.68C384.16 367.2 376.16 368 368 368C365.28 368 362.64 367.92 360 367.68L360 367.68Z" />
		<path id="Layer" class="shp0" d="M288 270.64C288 280.24 280.24 288 270.64 288L254.88 288C250.4 275.44 248 262 248 248C248 196.48 280.56 152.48 326.16 135.52L326.24 135.6C337.92 141.2 348.72 148.72 358.08 158.08C364.4 164.4 368 173.04 368 182.08L368 190.64C368 204.64 356.64 216 342.64 216C328.16 216 314.24 221.76 304 232C293.76 242.24 288 256.16 288 270.64Z" />
		<path id="Layer" class="shp0" d="M488 248C488 269.04 482.56 288.72 473.12 305.92C468.64 306.08 464.08 305.6 459.52 304.24C443.2 299.36 432 284.32 432 267.28C432 255.12 426.32 243.68 416.56 236.4L415.44 235.6C405.68 228.32 400 216.88 400 204.72L400 202.4C400 185.04 404 167.92 411.76 152.4C414.08 147.92 416.88 143.84 419.92 139.92L420 139.84C460.24 159.2 488 200.4 488 248Z" />
	</g>
	<path id="Layer" class="shp1" d="M232 448L280 448L280 464L232 464L232 448Z" />
	<path id="Layer" class="shp1" d="M192 32L208 32L208 48L192 48L192 32Z" />
	<path id="Layer" class="shp1" d="M224 32L288 32L288 48L224 48L224 32Z" />
	<path id="Layer" class="shp1" d="M304 32L320 32L320 48L304 48L304 32Z" />
	<path id="Layer" fill-rule="evenodd" class="shp1" d="M496 248C496 307.51 455.11 357.52 400 371.79L400 456C400 478.05 382.05 496 360 496L152 496C129.95 496 112 478.05 112 456L112 296L128 296L128 416L384 416L384 374.89C378.74 375.55 373.43 376 368 376L368 400L144 400L144 96L368 96L368 120C373.43 120 378.74 120.45 384 121.11L384 80L128 80L128 176C128 211.29 99.29 240 64 240C28.71 240 0 211.29 0 176C0 140.71 28.71 112 64 112C83.12 112 100.27 120.47 112 133.81L112 40C112 17.95 129.95 0 152 0L360 0C382.05 0 400 17.95 400 40L400 124.21C455.11 138.48 496 188.49 496 248ZM112 176C112 149.53 90.47 128 64 128C37.53 128 16 149.53 16 176C16 202.47 37.53 224 64 224C90.47 224 112 202.47 112 176ZM384 64L384 40C384 26.77 373.23 16 360 16L152 16C138.77 16 128 26.77 128 40L128 64L384 64ZM384 456L384 432L128 432L128 456C128 469.23 138.77 480 152 480L360 480C373.23 480 384 469.23 384 456ZM352 374.89C288.96 366.98 240 313.15 240 248C240 182.85 288.96 129.02 352 121.11L352 112L160 112L160 384L352 384L352 374.89ZM480 248C480 186.24 429.76 136 368 136C306.24 136 256 186.24 256 248C256 309.76 306.24 360 368 360C429.76 360 480 309.76 480 248Z" />
	<path id="Layer" class="shp1" d="M80 400C80 408.82 72.82 416 64 416C55.18 416 48 408.82 48 400L48 304L32 304L32 400C32 417.65 46.35 432 64 432C81.65 432 96 417.65 96 400L96 304L80 304L80 400Z" />
	<path id="Layer" class="shp0" d="M128 304L0 304L0 224L128 224L128 304Z" />
</svg>