<svg xmlns="http://www.w3.org/2000/svg" viewBox="0 0 64 64" width="64" height="64">
	<style>
		tspan { white-space:pre }
		.shp0 { fill: #000000 } 
		.shp1 { fill: #85c33d } 
	</style>
	<path id="Layer" class="shp0" d="M38 5L40 5L40 7L38 7L38 5Z" />
	<path id="Layer" class="shp0" d="M28 5L36 5L36 7L28 7L28 5Z" />
	<path id="Layer" class="shp0" d="M30 57L38 57L38 59L30 59L30 57Z" />
	<path id="Layer" class="shp0" d="M44 57L46 57L46 59L44 59L44 57Z" />
	<path id="Layer" class="shp0" d="M22 57L24 57L24 59L22 59L22 57Z" />
	<path id="Layer" class="shp1" d="M36 33C36 26.16 41.29 20.56 48 20.05L48 13L20 13L20 51L48 51L48 45.95C41.29 45.44 36 39.84 36 33Z" />
	<path id="Layer" class="shp0" d="M24 33L33 33L33 35L24 35L24 33Z" />
	<path id="Layer" class="shp0" d="M24 37L33 37L33 39L24 39L24 37Z" />
	<path id="Layer" class="shp0" d="M24 41L33 41L33 43L24 43L24 41Z" />
	<path id="Layer" class="shp0" d="M24 45L33 45L33 47L24 47L24 45Z" />
	<path id="Layer" class="shp0" d="M56 5L58 5L58 14L56 14L56 5Z" />
	<path id="Layer" class="shp0" d="M56 1L58 1L58 3L56 3L56 1Z" />
	<path id="Layer" class="shp0" d="M10 50L12 50L12 59L10 59L10 50Z" />
	<path id="Layer" class="shp1" d="M57 19C55.35 19 54 17.65 54 16C54 14.35 55.35 13 57 13C58.65 13 60 14.35 60 16C60 17.65 58.65 19 57 19Z" />
	<path id="Layer" class="shp1" d="M11 51C9.35 51 8 49.65 8 48C8 46.35 9.35 45 11 45C12.65 45 14 46.35 14 48C14 49.65 12.65 51 11 51Z" />
	<path id="Layer" class="shp0" d="M10 61L12 61L12 63L10 63L10 61Z" />
	<path id="Layer" fill-rule="evenodd" class="shp0" d="M52 46.67L52 58C52 60.76 49.76 63 47 63L21 63C18.24 63 16 60.76 16 58L16 43L10.22 43L9.62 40.59L7.48 41.87L2.13 36.52L3.42 34.38L1 33.78L1 26.22L3.42 25.62L2.13 23.48L7.48 18.14L9.62 19.42L10.22 17L16 17L16 6C16 3.24 18.24 1 21 1L47 1C49.76 1 52 3.24 52 6L52 19.33C58.28 20.71 63 26.31 63 33C63 39.69 58.28 45.29 52 46.67ZM49 21C42.38 21 37 26.38 37 33C37 34.95 37.48 36.79 38.3 38.41C38.86 36.89 40.14 35.69 41.79 35.27L46 34.22L46 33.98C44.75 33.04 44 31.56 44 30L44 28.21C44 25.52 46 23.24 48.56 23.02C49.95 22.9 51.35 23.37 52.38 24.31C53.41 25.26 54 26.6 54 28L54 30C54 31.56 53.25 33.04 52 33.98L52 34.22L56.21 35.27C57.86 35.69 59.14 36.89 59.7 38.41C60.52 36.78 61 34.95 61 33C61 26.38 55.62 21 49 21ZM50 46.95C49.67 46.97 49.34 47 49 47C41.28 47 35 40.72 35 33C35 32.32 35.06 31.66 35.16 31L24 31L24 17L44 17L44 19.94C45.55 19.34 47.24 19 49 19C49.34 19 49.67 19.03 50 19.05L50 11L18 11L18 53L50 53L50 46.95ZM21 3C19.35 3 18 4.35 18 6L18 9L50 9L50 6C50 4.35 48.65 3 47 3L21 3ZM16 41L16 36.7C15.35 36.89 14.68 37 14 37C10.14 37 7 33.86 7 30C7 26.14 10.14 23 14 23C14.68 23 15.35 23.11 16 23.31L16 19L11.78 19L11.17 21.45L9.95 21.95L7.79 20.65L4.65 23.79L5.95 25.95L5.45 27.17L3 27.78L3 32.22L5.45 32.83L5.95 34.05L4.65 36.21L7.79 39.35L9.95 38.05L11.09 38.52L11.29 39.05L11.78 41L16 41ZM16 25.43C15.37 25.15 14.69 25 14 25C11.24 25 9 27.24 9 30C9 32.76 11.24 35 14 35C14.69 35 15.37 34.85 16 34.57L16 25.43ZM50 58L50 55L18 55L18 58C18 59.65 19.35 61 21 61L47 61C48.65 61 50 59.65 50 58ZM42 20.89L42 19L26 19L26 29L35.59 29C36.62 25.55 38.95 22.67 42 20.89ZM58 40.91L58 40.12C58 38.74 57.07 37.55 55.73 37.21L50 35.78L50 32.87L50.5 32.58C51.44 32.03 52 31.07 52 30L52 28C52 27.16 51.65 26.36 51.03 25.79C50.4 25.21 49.59 24.94 48.73 25.01C47.2 25.15 46 26.55 46 28.21L46 30C46 31.07 46.56 32.03 47.5 32.58L48 32.87L48 35.78L42.27 37.21C40.94 37.55 40 38.74 40 40.12L40 40.91C42.2 43.41 45.41 45 49 45C52.59 45 55.8 43.41 58 40.91Z" />
</svg>